<svg xmlns="http://www.w3.org/2000/svg" xmlns:xlink="http://www.w3.org/1999/xlink" contentStyleType="text/css" data-diagram-type="CLASS" height="493px" preserveAspectRatio="none" style="width:921px;height:493px;background:#FFFFFF;" version="1.1" viewBox="0 0 921 493" width="921px" zoomAndPan="magnify"><defs/><g><!--cluster xconv2 (alpha)--><g class="cluster" data-entity="xconv2 .alpha." data-source-line="10" data-uid="ent0002" id="cluster_xconv2 .alpha."><path d="M8.5,6 L115.375,6 A3.75,3.75 0 0 1 117.875,8.5 L124.875,28.4883 L911.5,28.4883 A2.5,2.5 0 0 1 914,30.9883 L914,484.37 A2.5,2.5 0 0 1 911.5,486.87 L8.5,486.87 A2.5,2.5 0 0 1 6,484.37 L6,8.5 A2.5,2.5 0 0 1 8.5,6" fill="none" style="stroke:#000000;stroke-width:1.5;"/><line style="stroke:#000000;stroke-width:1.5;" x1="6" x2="124.875" y1="28.4883" y2="28.4883"/><text fill="#000000" font-family="sans-serif" font-size="14" font-weight="bold" lengthAdjust="spacing" textLength="105.875" x="10" y="21.5352">xconv2 (alpha)</text></g><!--cluster Worker Process--><g class="cluster" data-entity="Worker Process" data-source-line="19" data-uid="ent0009" id="cluster_Worker Process"><rect fill="none" height="250.24" rx="2.5" ry="2.5" style="stroke:#181818;stroke-width:1;" width="190" x="32" y="49"/><path d="M153.3779,49 L153.3779,58.4883 L143.3779,68.4883 L32,68.4883" fill="none" style="stroke:#181818;stroke-width:1;"/><text fill="#000000" font-family="sans-serif" font-size="14" font-weight="bold" lengthAdjust="spacing" textLength="111.3779" x="35" y="63.5352">Worker Process</text></g><!--cluster ui--><g class="cluster" data-entity="ui" data-source-line="34" data-uid="ent0014" id="cluster_ui"><path d="M32.5,368.89 L47.2471,368.89 A3.75,3.75 0 0 1 49.7471,371.39 L56.7471,391.3783 L887.5,391.3783 A2.5,2.5 0 0 1 890,393.8783 L890,460.37 A2.5,2.5 0 0 1 887.5,462.87 L32.5,462.87 A2.5,2.5 0 0 1 30,460.37 L30,371.39 A2.5,2.5 0 0 1 32.5,368.89" fill="none" style="stroke:#000000;stroke-width:1.5;"/><line style="stroke:#000000;stroke-width:1.5;" x1="30" x2="56.7471" y1="391.3783" y2="391.3783"/><text fill="#000000" font-family="sans-serif" font-size="14" font-weight="bold" lengthAdjust="spacing" textLength="13.7471" x="34" y="384.4252">ui</text></g><!--class CFVCore--><g class="entity" data-entity="CFVCore" data-source-line="11" data-uid="ent0003" id="entity_CFVCore"><rect fill="#F1F1F1" height="32" rx="2.5" ry="2.5" style="stroke:#181818;stroke-width:0.5;" width="90.1602" x="367.92" y="246.93"/><ellipse cx="382.92" cy="262.93" fill="#ADD1B2" rx="11" ry="11" style="stroke:#181818;stroke-width:1;"/><path d="M385.3931,269.0731 Q384.8121,269.3719 384.1729,269.5213 Q383.5338,269.6707 382.8282,269.6707 Q380.3214,269.6707 379.0015,268.0189 Q377.6817,266.367 377.6817,263.2459 Q377.6817,260.1165 379.0015,258.4647 Q380.3214,256.8128 382.8282,256.8128 Q383.5338,256.8128 384.1812,256.9622 Q384.8287,257.1116 385.3931,257.4105 L385.3931,260.1331 Q384.7623,259.5521 384.1688,259.2823 Q383.5753,259.0125 382.9444,259.0125 Q381.5997,259.0125 380.9149,260.0792 Q380.2301,261.1458 380.2301,263.2459 Q380.2301,265.3377 380.9149,266.4044 Q381.5997,267.471 382.9444,267.471 Q383.5753,267.471 384.1688,267.2012 Q384.7623,266.9315 385.3931,266.3504 Z " fill="#000000"/><text fill="#000000" font-family="sans-serif" font-size="14" lengthAdjust="spacing" textLength="58.1602" x="396.92" y="268.221">CFVCore</text></g><g class="entity" data-entity="Note1" data-source-line="12" data-uid="ent0004" id="entity_Note1"><path d="M493.08,234.96 L493.08,258.93 L458.53,262.93 L493.08,266.93 L493.08,290.8916 A0,0 0 0 0 493.08,290.8916 L658.9145,290.8916 A0,0 0 0 0 658.9145,290.8916 L658.9145,244.96 L648.9145,234.96 L493.08,234.96 A0,0 0 0 0 493.08,234.96" fill="#FFFFE0" style="stroke:#000000;stroke-width:0.5;"/><path d="M648.9145,234.96 L648.9145,244.96 L658.9145,244.96 L648.9145,234.96" fill="#FFFFE0" style="stroke:#000000;stroke-width:0.5;"/><text fill="#000000" font-family="sans-serif" font-size="13" lengthAdjust="spacing" textLength="128.0449" x="499.08" y="252.5284">CFVCore is the main</text><text fill="#000000" font-family="sans-serif" font-size="13" lengthAdjust="spacing" textLength="138.7598" x="499.08" y="267.8389">controller for the core</text><text fill="#000000" font-family="sans-serif" font-size="13" lengthAdjust="spacing" textLength="144.8345" x="499.08" y="283.1495">window logic and state</text></g><g class="entity" data-entity="Note2" data-source-line="14" data-uid="ent0006" id="entity_Note2"><path d="M484.78,72.03 L484.78,96 L449.67,100 L484.78,104 L484.78,127.9616 A0,0 0 0 0 484.78,127.9616 L777.2248,127.9616 A0,0 0 0 0 777.2248,127.9616 L777.2248,82.03 L767.2248,72.03 L484.78,72.03 A0,0 0 0 0 484.78,72.03" fill="#FFFFE0" style="stroke:#000000;stroke-width:0.5;"/><path d="M767.2248,72.03 L767.2248,82.03 L777.2248,82.03 L767.2248,72.03" fill="#FFFFE0" style="stroke:#000000;stroke-width:0.5;"/><text fill="#000000" font-family="sans-serif" font-size="13" lengthAdjust="spacing" textLength="250.0278" x="490.78" y="89.5984">CFVMain is the main window controller.</text><text fill="#000000" font-family="sans-serif" font-size="13" lengthAdjust="spacing" textLength="271.4448" x="490.78" y="104.9089">It handles the interactions with the worker,</text><text fill="#000000" font-family="sans-serif" font-size="13" lengthAdjust="spacing" textLength="219.3877" x="490.78" y="120.2195">sending code and receiving results</text></g><!--class CFVMain--><g class="entity" data-entity="CFVMain" data-source-line="16" data-uid="ent0007" id="entity_CFVMain"><rect fill="#F1F1F1" height="32" rx="2.5" ry="2.5" style="stroke:#181818;stroke-width:0.5;" width="90.8711" x="358.56" y="84"/><ellipse cx="373.56" cy="100" fill="#ADD1B2" rx="11" ry="11" style="stroke:#181818;stroke-width:1;"/><path d="M376.0331,106.1431 Q375.4521,106.4419 374.8129,106.5913 Q374.1738,106.7407 373.4682,106.7407 Q370.9614,106.7407 369.6415,105.0889 Q368.3217,103.437 368.3217,100.3159 Q368.3217,97.1865 369.6415,95.5347 Q370.9614,93.8828 373.4682,93.8828 Q374.1738,93.8828 374.8212,94.0322 Q375.4687,94.1816 376.0331,94.4805 L376.0331,97.2031 Q375.4023,96.6221 374.8088,96.3523 Q374.2153,96.0825 373.5844,96.0825 Q372.2397,96.0825 371.5549,97.1492 Q370.8701,98.2158 370.8701,100.3159 Q370.8701,102.4077 371.5549,103.4744 Q372.2397,104.541 373.5844,104.541 Q374.2153,104.541 374.8088,104.2712 Q375.4023,104.0015 376.0331,103.4204 Z " fill="#000000"/><text fill="#000000" font-family="sans-serif" font-size="14" lengthAdjust="spacing" textLength="58.8711" x="387.56" y="105.291">CFVMain</text></g><!--class Worker--><g class="entity" data-entity="Worker" data-source-line="20" data-uid="ent0010" id="entity_Worker"><rect fill="#F1F1F1" height="32" rx="2.5" ry="2.5" style="stroke:#181818;stroke-width:0.5;" width="80.0156" x="100.99" y="84"/><ellipse cx="115.99" cy="100" fill="#B4A7E5" rx="11" ry="11" style="stroke:#181818;stroke-width:1;"/><path d="M112.4177,96.2651 L112.4177,94.1069 L119.7971,94.1069 L119.7971,96.2651 L117.3318,96.2651 L117.3318,104.3418 L119.7971,104.3418 L119.7971,106.5 L112.4177,106.5 L112.4177,104.3418 L114.8831,104.3418 L114.8831,96.2651 Z " fill="#000000"/><text fill="#000000" font-family="sans-serif" font-size="14" font-style="italic" lengthAdjust="spacing" textLength="48.0156" x="129.99" y="105.291">Worker</text></g><!--class CFInterface--><g class="entity" data-entity="CFInterface" data-source-line="21" data-uid="ent0011" id="entity_CFInterface"><rect fill="#F1F1F1" height="40.6211" rx="2.5" ry="2.5" style="stroke:#181818;stroke-width:0.5;" width="157.959" x="48.02" y="242.62"/><ellipse cx="63.02" cy="262.9305" fill="#FF7700" rx="11" ry="11" style="stroke:#181818;stroke-width:1;"/><path d="M62.7534,263.9935 Q60.9023,263.288 60.2466,262.5118 Q59.5908,261.7357 59.5908,260.4242 Q59.5908,258.7391 60.6699,257.7763 Q61.749,256.8134 63.6333,256.8134 Q64.4883,256.8134 65.3432,257.0084 Q66.1982,257.2035 67.0366,257.5853 L67.0366,259.976 Q66.248,259.4198 65.4346,259.1293 Q64.6211,258.8388 63.8242,258.8388 Q62.936,258.8388 62.4629,259.1957 Q61.9897,259.5526 61.9897,260.2167 Q61.9897,260.7313 62.3342,261.0675 Q62.6787,261.4037 63.7744,261.8104 L64.8286,262.2089 Q66.3227,262.7567 67.0283,263.6615 Q67.7339,264.5663 67.7339,265.9442 Q67.7339,267.8202 66.6257,268.7457 Q65.5176,269.6713 63.2763,269.6713 Q62.355,269.6713 61.4294,269.4513 Q60.5039,269.2313 59.6406,268.7997 L59.6406,266.2679 Q60.6201,266.9652 61.5373,267.3055 Q62.4546,267.6459 63.3511,267.6459 Q64.2558,267.6459 64.7539,267.235 Q65.2519,266.8241 65.2519,266.0853 Q65.2519,265.5292 64.9199,265.11 Q64.5879,264.6908 63.957,264.4501 Z " fill="#000000"/><text fill="#000000" font-family="sans-serif" font-size="12" font-style="italic" lengthAdjust="spacing" textLength="89.3262" x="95.3364" y="259.2216">&#171;Science Code&#187;</text><text fill="#000000" font-family="sans-serif" font-size="14" lengthAdjust="spacing" textLength="125.959" x="77.02" y="275.288">xconv_cf_interface</text></g><!--class Menu\nController--><g class="entity" data-entity="Menu.nController" data-source-line="35" data-uid="ent0015" id="entity_Menu.nController"><rect fill="#F1F1F1" height="42.9766" rx="2.5" ry="2.5" style="stroke:#181818;stroke-width:0.5;" width="100.1611" x="773.92" y="403.89"/><ellipse cx="788.92" cy="425.3783" fill="#ADD1B2" rx="11" ry="11" style="stroke:#181818;stroke-width:1;"/><path d="M791.3931,431.5213 Q790.8121,431.8202 790.1729,431.9696 Q789.5338,432.119 788.8282,432.119 Q786.3214,432.119 785.0015,430.4671 Q783.6817,428.8153 783.6817,425.6942 Q783.6817,422.5648 785.0015,420.9129 Q786.3214,419.2611 788.8282,419.2611 Q789.5338,419.2611 790.1812,419.4105 Q790.8287,419.5599 791.3931,419.8588 L791.3931,422.5814 Q790.7623,422.0004 790.1688,421.7306 Q789.5753,421.4608 788.9444,421.4608 Q787.5997,421.4608 786.9149,422.5275 Q786.2301,423.5941 786.2301,425.6942 Q786.2301,427.786 786.9149,428.8526 Q787.5997,429.9193 788.9444,429.9193 Q789.5753,429.9193 790.1688,429.6495 Q790.7623,429.3797 791.3931,428.7987 Z " fill="#000000"/><text fill="#000000" font-family="sans-serif" font-size="14" lengthAdjust="spacing" textLength="37.2354" x="818.3829" y="422.4252">Menu</text><text fill="#000000" font-family="sans-serif" font-size="14" lengthAdjust="spacing" textLength="68.1611" x="802.92" y="438.9134">Controller</text></g><!--class Settings\nStore--><g class="entity" data-entity="Settings.nStore" data-source-line="36" data-uid="ent0016" id="entity_Settings.nStore"><rect fill="#F1F1F1" height="42.9766" rx="2.5" ry="2.5" style="stroke:#181818;stroke-width:0.5;" width="86.4141" x="221.79" y="403.89"/><ellipse cx="236.79" cy="425.3783" fill="#ADD1B2" rx="11" ry="11" style="stroke:#181818;stroke-width:1;"/><path d="M239.2631,431.5213 Q238.6821,431.8202 238.0429,431.9696 Q237.4038,432.119 236.6982,432.119 Q234.1914,432.119 232.8715,430.4671 Q231.5517,428.8153 231.5517,425.6942 Q231.5517,422.5648 232.8715,420.9129 Q234.1914,419.2611 236.6982,419.2611 Q237.4038,419.2611 238.0512,419.4105 Q238.6987,419.5599 239.2631,419.8588 L239.2631,422.5814 Q238.6323,422.0004 238.0388,421.7306 Q237.4453,421.4608 236.8144,421.4608 Q235.4697,421.4608 234.7849,422.5275 Q234.1001,423.5941 234.1001,425.6942 Q234.1001,427.786 234.7849,428.8526 Q235.4697,429.9193 236.8144,429.9193 Q237.4453,429.9193 238.0388,429.6495 Q238.6323,429.3797 239.2631,428.7987 Z " fill="#000000"/><text fill="#000000" font-family="sans-serif" font-size="14" lengthAdjust="spacing" textLength="54.4141" x="250.79" y="422.4252">Settings</text><text fill="#000000" font-family="sans-serif" font-size="14" lengthAdjust="spacing" textLength="34.9043" x="260.5449" y="438.9134">Store</text></g><!--class Selection\nController--><g class="entity" data-entity="Selection.nController" data-source-line="37" data-uid="ent0017" id="entity_Selection.nController"><rect fill="#F1F1F1" height="42.9766" rx="2.5" ry="2.5" style="stroke:#181818;stroke-width:0.5;" width="100.1611" x="342.92" y="403.89"/><ellipse cx="357.92" cy="425.3783" fill="#ADD1B2" rx="11" ry="11" style="stroke:#181818;stroke-width:1;"/><path d="M360.3931,431.5213 Q359.8121,431.8202 359.1729,431.9696 Q358.5338,432.119 357.8282,432.119 Q355.3214,432.119 354.0015,430.4671 Q352.6817,428.8153 352.6817,425.6942 Q352.6817,422.5648 354.0015,420.9129 Q355.3214,419.2611 357.8282,419.2611 Q358.5338,419.2611 359.1812,419.4105 Q359.8287,419.5599 360.3931,419.8588 L360.3931,422.5814 Q359.7623,422.0004 359.1688,421.7306 Q358.5753,421.4608 357.9444,421.4608 Q356.5997,421.4608 355.9149,422.5275 Q355.2301,423.5941 355.2301,425.6942 Q355.2301,427.786 355.9149,428.8526 Q356.5997,429.9193 357.9444,429.9193 Q358.5753,429.9193 359.1688,429.6495 Q359.7623,429.3797 360.3931,428.7987 Z " fill="#000000"/><text fill="#000000" font-family="sans-serif" font-size="14" lengthAdjust="spacing" textLength="60.9287" x="375.5362" y="422.4252">Selection</text><text fill="#000000" font-family="sans-serif" font-size="14" lengthAdjust="spacing" textLength="68.1611" x="371.92" y="438.9134">Controller</text></g><!--class FieldMetadata\nController--><g class="entity" data-entity="FieldMetadata.nController" data-source-line="38" data-uid="ent0018" id="entity_FieldMetadata.nController"><rect fill="#F1F1F1" height="42.9766" rx="2.5" ry="2.5" style="stroke:#181818;stroke-width:0.5;" width="126.5479" x="477.73" y="403.89"/><ellipse cx="492.73" cy="425.3783" fill="#ADD1B2" rx="11" ry="11" style="stroke:#181818;stroke-width:1;"/><path d="M495.2031,431.5213 Q494.6221,431.8202 493.9829,431.9696 Q493.3438,432.119 492.6382,432.119 Q490.1314,432.119 488.8115,430.4671 Q487.4917,428.8153 487.4917,425.6942 Q487.4917,422.5648 488.8115,420.9129 Q490.1314,419.2611 492.6382,419.2611 Q493.3438,419.2611 493.9912,419.4105 Q494.6387,419.5599 495.2031,419.8588 L495.2031,422.5814 Q494.5723,422.0004 493.9788,421.7306 Q493.3853,421.4608 492.7544,421.4608 Q491.4097,421.4608 490.7249,422.5275 Q490.0401,423.5941 490.0401,425.6942 Q490.0401,427.786 490.7249,428.8526 Q491.4097,429.9193 492.7544,429.9193 Q493.3853,429.9193 493.9788,429.6495 Q494.5723,429.3797 495.2031,428.7987 Z " fill="#000000"/><text fill="#000000" font-family="sans-serif" font-size="14" lengthAdjust="spacing" textLength="94.5479" x="506.73" y="422.4252">FieldMetadata</text><text fill="#000000" font-family="sans-serif" font-size="14" lengthAdjust="spacing" textLength="68.1611" x="519.9234" y="438.9134">Controller</text></g><!--class PlotView\nController--><g class="entity" data-entity="PlotView.nController" data-source-line="39" data-uid="ent0019" id="entity_PlotView.nController"><rect fill="#F1F1F1" height="42.9766" rx="2.5" ry="2.5" style="stroke:#181818;stroke-width:0.5;" width="100.1611" x="638.92" y="403.89"/><ellipse cx="653.92" cy="425.3783" fill="#ADD1B2" rx="11" ry="11" style="stroke:#181818;stroke-width:1;"/><path d="M656.3931,431.5213 Q655.8121,431.8202 655.1729,431.9696 Q654.5338,432.119 653.8282,432.119 Q651.3214,432.119 650.0015,430.4671 Q648.6817,428.8153 648.6817,425.6942 Q648.6817,422.5648 650.0015,420.9129 Q651.3214,419.2611 653.8282,419.2611 Q654.5338,419.2611 655.1812,419.4105 Q655.8287,419.5599 656.3931,419.8588 L656.3931,422.5814 Q655.7623,422.0004 655.1688,421.7306 Q654.5753,421.4608 653.9444,421.4608 Q652.5997,421.4608 651.9149,422.5275 Q651.2301,423.5941 651.2301,425.6942 Q651.2301,427.786 651.9149,428.8526 Q652.5997,429.9193 653.9444,429.9193 Q654.5753,429.9193 655.1688,429.6495 Q655.7623,429.3797 656.3931,428.7987 Z " fill="#000000"/><text fill="#000000" font-family="sans-serif" font-size="14" lengthAdjust="spacing" textLength="57.4082" x="673.2965" y="422.4252">PlotView</text><text fill="#000000" font-family="sans-serif" font-size="14" lengthAdjust="spacing" textLength="68.1611" x="667.92" y="438.9134">Controller</text></g><!--class ContourOptions\nController--><g class="entity" data-entity="ContourOptions.nController" data-source-line="40" data-uid="ent0020" id="entity_ContourOptions.nController"><rect fill="#F1F1F1" height="42.9766" rx="2.5" ry="2.5" style="stroke:#181818;stroke-width:0.5;" width="140.623" x="45.69" y="403.89"/><ellipse cx="60.69" cy="425.3783" fill="#ADD1B2" rx="11" ry="11" style="stroke:#181818;stroke-width:1;"/><path d="M63.1631,431.5213 Q62.5821,431.8202 61.9429,431.9696 Q61.3038,432.119 60.5982,432.119 Q58.0914,432.119 56.7715,430.4671 Q55.4517,428.8153 55.4517,425.6942 Q55.4517,422.5648 56.7715,420.9129 Q58.0914,419.2611 60.5982,419.2611 Q61.3038,419.2611 61.9512,419.4105 Q62.5987,419.5599 63.1631,419.8588 L63.1631,422.5814 Q62.5323,422.0004 61.9388,421.7306 Q61.3453,421.4608 60.7144,421.4608 Q59.3697,421.4608 58.6849,422.5275 Q58.0001,423.5941 58.0001,425.6942 Q58.0001,427.786 58.6849,428.8526 Q59.3697,429.9193 60.7144,429.9193 Q61.3453,429.9193 61.9388,429.6495 Q62.5323,429.3797 63.1631,428.7987 Z " fill="#000000"/><text fill="#000000" font-family="sans-serif" font-size="14" lengthAdjust="spacing" textLength="108.623" x="74.69" y="422.4252">ContourOptions</text><text fill="#000000" font-family="sans-serif" font-size="14" lengthAdjust="spacing" textLength="68.1611" x="94.921" y="438.9134">Controller</text></g><!--link Worker to CFInterface--><g class="link" data-entity-1="Worker" data-entity-2="CFInterface" data-source-line="22" data-uid="lnk12" id="link_Worker_CFInterface"><path codeLine="22" d="M117.45,116.43 C104.33,126.5 89.23,140.92 82,157.96 C73.84,177.19 75.15,185.23 82,204.96 C86.88,219.01 92.7666,227.7862 102.0666,237.9362" fill="none" id="Worker-to-CFInterface" style="stroke:#181818;stroke-width:1;"/><polygon fill="#181818" points="106.12,242.36,102.9892,233.022,102.7422,238.6735,97.0907,238.4265,106.12,242.36" style="stroke:#181818;stroke-width:1;"/><text fill="#000000" font-family="sans-serif" font-size="13" lengthAdjust="spacing" textLength="28.5645" x="96.2698" y="171.5284">uses</text><text fill="#000000" font-family="sans-serif" font-size="13" lengthAdjust="spacing" textLength="55.104" x="83" y="186.8389">methods</text><text fill="#000000" font-family="sans-serif" font-size="13" lengthAdjust="spacing" textLength="30.2212" x="95.4414" y="202.1495">from</text></g><!--link CFVMain to Worker--><g class="link" data-entity-1="CFVMain" data-entity-2="Worker" data-source-line="31" data-uid="lnk13" id="link_CFVMain_Worker"><path codeLine="31" d="M352.47,100 C302.49,100 235,100 187.23,100" fill="none" id="CFVMain-Worker" style="stroke:#181818;stroke-width:1;"/><polygon fill="#181818" points="358.47,100,349.47,96,353.47,100,349.47,104,358.47,100" style="stroke:#181818;stroke-width:1;"/><polygon fill="#181818" points="181.23,100,190.23,104,186.23,100,190.23,96,181.23,100" style="stroke:#181818;stroke-width:1;"/><text fill="#000000" font-family="sans-serif" font-size="13" lengthAdjust="spacing" textLength="28.5645" x="255.7839" y="63.5684">uses</text><text fill="#000000" font-family="sans-serif" font-size="13" lengthAdjust="spacing" textLength="101.0991" x="227.7431" y="78.8789">stdin/stdout for</text><text fill="#000000" font-family="sans-serif" font-size="13" lengthAdjust="spacing" textLength="97.3223" x="229.6316" y="94.1895">communication</text></g><!--link CFVMain to CFVCore--><g class="link" data-entity-1="CFVMain" data-entity-2="CFVCore" data-source-line="45" data-uid="lnk21" id="link_CFVMain_CFVCore"><path codeLine="45" d="M404.86,116.43 C406.59,147.27 409.436,198.198 411.146,228.808" fill="none" id="CFVMain-to-CFVCore" style="stroke:#181818;stroke-width:1;"/><polygon fill="none" points="412.15,246.78,417.1367,228.4734,405.1554,229.1427,412.15,246.78" style="stroke:#181818;stroke-width:1;"/></g><!--reverse link CFVCore to Menu\nController--><g class="link" data-entity-1="CFVCore" data-entity-2="Menu.nController" data-source-line="46" data-uid="lnk22" id="link_CFVCore_Menu.nController"><path codeLine="46" d="M438.9863,286.9831 C450.9263,296.9131 458.65,301.37 476,307.24 C533.12,326.57 693.82,292.48 747,320.89 C780.78,338.94 803.78,379.05 815.34,403.7" fill="none" id="CFVCore-backto-Menu\nController" style="stroke:#181818;stroke-width:1;"/><polygon fill="none" points="429.76,279.31,431.8154,286.222,438.9863,286.9831,436.9308,280.0711,429.76,279.31" style="stroke:#181818;stroke-width:1;"/><text fill="#000000" font-family="sans-serif" font-size="13" lengthAdjust="spacing" textLength="35.5151" x="808.96" y="334.4584">menu</text><text fill="#000000" font-family="sans-serif" font-size="13" lengthAdjust="spacing" textLength="83.9351" x="784.75" y="349.7689">orchestration</text></g><!--reverse link CFVCore to Settings\nStore--><g class="link" data-entity-1="CFVCore" data-entity-2="Settings.nStore" data-source-line="47" data-uid="lnk23" id="link_CFVCore_Settings.nStore"><path codeLine="47" d="M368.7367,284.8518 C349.8667,294.7218 337.5,303.4 321,320.89 C297.87,345.41 281.29,381.32 272.43,403.74" fill="none" id="CFVCore-backto-Settings\nStore" style="stroke:#181818;stroke-width:1;"/><polygon fill="none" points="379.37,279.29,372.1994,278.5265,368.7367,284.8518,375.9073,285.6153,379.37,279.29" style="stroke:#181818;stroke-width:1;"/><text fill="#000000" font-family="sans-serif" font-size="13" lengthAdjust="spacing" textLength="50.1528" x="332.8386" y="334.4584">settings</text><text fill="#000000" font-family="sans-serif" font-size="13" lengthAdjust="spacing" textLength="71.8301" x="322" y="349.7689">persistence</text></g><!--reverse link CFVCore to Selection\nController--><g class="link" data-entity-1="CFVCore" data-entity-2="Selection.nController" data-source-line="48" data-uid="lnk24" id="link_CFVCore_Selection.nController"><path codeLine="48" d="M409.5951,291.2178 C405.9851,320.1678 399.67,370.83 395.6,403.53" fill="none" id="CFVCore-backto-Selection\nController" style="stroke:#181818;stroke-width:1;"/><polygon fill="none" points="411.08,279.31,406.3683,284.7689,409.5951,291.2178,414.3068,285.7588,411.08,279.31" style="stroke:#181818;stroke-width:1;"/><text fill="#000000" font-family="sans-serif" font-size="13" lengthAdjust="spacing" textLength="34.8867" x="432.0753" y="334.4584">slider</text><text fill="#000000" font-family="sans-serif" font-size="13" lengthAdjust="spacing" textLength="86.2773" x="406.38" y="349.7689">collapse state</text></g><!--reverse link CFVCore to FieldMetadata\nController--><g class="link" data-entity-1="CFVCore" data-entity-2="FieldMetadata.nController" data-source-line="49" data-uid="lnk25" id="link_CFVCore_FieldMetadata.nController"><path codeLine="49" d="M444.0144,286.2533 C456.0644,294.7833 461.75,298.48 476,307.24 C486.79,313.87 492.65,311.37 501,320.89 C521.95,344.79 532.51,380.87 537.37,403.51" fill="none" id="CFVCore-backto-FieldMetadata\nController" style="stroke:#181818;stroke-width:1;"/><polygon fill="none" points="434.22,279.32,436.8061,286.0514,444.0144,286.2533,441.4283,279.5218,434.22,279.32" style="stroke:#181818;stroke-width:1;"/><text fill="#000000" font-family="sans-serif" font-size="13" lengthAdjust="spacing" textLength="27.7202" x="548.2631" y="334.4584">field</text><text fill="#000000" font-family="sans-serif" font-size="13" lengthAdjust="spacing" textLength="81.5864" x="521.33" y="349.7689">properties UI</text></g><!--reverse link CFVCore to PlotView\nController--><g class="link" data-entity-1="CFVCore" data-entity-2="PlotView.nController" data-source-line="50" data-uid="lnk26" id="link_CFVCore_PlotView.nController"><path codeLine="50" d="M439.4165,286.8279 C451.3865,296.5979 458.93,300.98 476,307.24 C532.62,328 558.45,291.3 611,320.89 C644.33,339.66 667.79,379.14 679.79,403.55" fill="none" id="CFVCore-backto-PlotView\nController" style="stroke:#181818;stroke-width:1;"/><polygon fill="none" points="430.12,279.24,432.239,286.1328,439.4165,286.8279,437.2975,279.9351,430.12,279.24" style="stroke:#181818;stroke-width:1;"/><text fill="#000000" font-family="sans-serif" font-size="13" lengthAdjust="spacing" textLength="63.3306" x="660.5828" y="334.4584">plot panel</text><text fill="#000000" font-family="sans-serif" font-size="13" lengthAdjust="spacing" textLength="91.4761" x="646.51" y="349.7689">+ save actions</text></g><!--reverse link CFVCore to ContourOptions\nController--><g class="link" data-entity-1="CFVCore" data-entity-2="ContourOptions.nController" data-source-line="51" data-uid="lnk27" id="link_CFVCore_ContourOptions.nController"><path codeLine="51" d="M356.0815,276.7633 C320.0115,285.8233 280.64,298.33 240,320.89 C199.06,343.62 158.76,380.74 135.7,403.8" fill="none" id="CFVCore-backto-ContourOptions\nController" style="stroke:#181818;stroke-width:1;"/><polygon fill="none" points="367.72,273.84,360.9263,271.4222,356.0815,276.7633,362.8752,279.1812,367.72,273.84" style="stroke:#181818;stroke-width:1;"/><text fill="#000000" font-family="sans-serif" font-size="13" lengthAdjust="spacing" textLength="48.9468" x="241" y="334.4584">contour</text><text fill="#000000" font-family="sans-serif" font-size="13" lengthAdjust="spacing" textLength="45.5952" x="242.6758" y="349.7689">dialogs</text></g><!--link CFInterface to ContourOptions\nController--><g class="link" data-entity-1="CFInterface" data-entity-2="ContourOptions.nController" data-source-line="53" data-uid="lnk28" id="link_CFInterface_ContourOptions.nController"><path codeLine="53" d="M94.6375,287.6399 C83.3275,297.3999 76.05,306.29 70,320.89 C58.03,349.77 74.8365,378.0927 92.1965,398.9027" fill="none" id="CFInterface-ContourOptions\nController" style="stroke:#181818;stroke-width:1;stroke-dasharray:7,7;"/><polygon fill="#181818" points="99.18,283.72,89.753,286.5716,95.3946,286.9866,94.9796,292.6282,99.18,283.72" style="stroke:#181818;stroke-width:1;"/><polygon fill="#181818" points="96.04,403.51,93.3463,394.0367,92.8371,399.6706,87.2032,399.1613,96.04,403.51" style="stroke:#181818;stroke-width:1;"/><text fill="#000000" font-family="sans-serif" font-size="13" lengthAdjust="spacing" textLength="18.0845" x="88.8147" y="334.4584">for</text><text fill="#000000" font-family="sans-serif" font-size="13" lengthAdjust="spacing" textLength="53.7139" x="71" y="349.7689">example</text></g><!--SRC=[VLHBRzim3BxhLn3PfSMQBEkbm104s8m5o25RWM3TnK2XoamiH9OCYMwwH__xAB_glEQ33L7yFf8VIOUTjgNqiW1bP0YVYRn-gWYNojcr_eqm5RdE4B0ewHSKIBdBmj2qqMZO4dgUH7jbCCdve0ZzmbbAd74UdenKknF7BspSUbVPhF7QvvfmuFNDqOdFkmK_NwV7Nivdw8UnX2Zv8xS8enUkv_aMhgGfStazWZy2ceeXMJmapYEVBPF0g3s33a0vGY6rJIsZoJjZqCE6wUE5OgVKxhNDt1wCsse5qcOGI1AEG8Owfu-YevkqvxSeAsOUHe6MwotM9BLBWfnf3JP-shAahAjsDh0_vRLrx_mE_Krg0zfCsorJS7zYDXuLwkTeyXWgGw7Fx5Q8llwOYUWochJN06B3qdAkFsjwkFTEOGYDTdKY6waGcjjUpaRfHxLvx5tgcCbYsKDcCxXQtt0Nx-wcqsjOAusMpKdCUZvdgZRYU3m_m7s2Ac18RJk6gTruLuXNxhE0-EfAc36kfUWWm4yW5kS3lrr5iOsDLRcYgAnMCefwUMGcbHvEpGfjbTgaRrL_iKOYrfj3hgaPgyvkiExRMTGYRj4AIMQIv5cFU-FeGUF-x6KqkSf_B-l1E78HKQ5Ecl7uxxmV-MustNXyKX0hLzGcvrMEWNoZpn1oL2eZGcyfqGSTAFRr27D6XeWq_4lnST6CaMN0PeyEe1SrOdZz5-Aetd5WqhmjFvO7u7FoCQvaCvJIeadjUmZocTUcsQu3z6LzcKCrbocldkJ_G8XY3sPzCfd_7rzF8hx8eZG8ulKV]--></g></svg>